<?xml version="1.0" encoding="UTF-8" standalone="no"?>
<!-- Created with Inkscape (http://www.inkscape.org/) -->

<svg
   xmlns:dc="http://purl.org/dc/elements/1.1/"
   xmlns:cc="http://creativecommons.org/ns#"
   xmlns:rdf="http://www.w3.org/1999/02/22-rdf-syntax-ns#"
   xmlns:svg="http://www.w3.org/2000/svg"
   xmlns="http://www.w3.org/2000/svg"
   xmlns:sodipodi="http://sodipodi.sourceforge.net/DTD/sodipodi-0.dtd"
   xmlns:inkscape="http://www.inkscape.org/namespaces/inkscape"
   id="svg2"
   version="1.1"
   inkscape:version="0.48.5 r10040"
   width="558"
   height="558"
   xml:space="preserve"
   sodipodi:docname="ejemplo fabian (1).ai"><metadata
     id="metadata8"><rdf:RDF><cc:Work
         rdf:about=""><dc:format>image/svg+xml</dc:format><dc:type
           rdf:resource="http://purl.org/dc/dcmitype/StillImage" /><dc:title></dc:title></cc:Work></rdf:RDF></metadata><defs
     id="defs6"><clipPath
       clipPathUnits="userSpaceOnUse"
       id="clipPath16"><path
         d="M 0,0 412,0 412,318 0,318 0,0 z"
         id="path18"
         inkscape:connector-curvature="0" /></clipPath><clipPath
       clipPathUnits="userSpaceOnUse"
       id="clipPath30"><path
         d="M 0,318 412,318 412,0 0,0 0,318 z"
         id="path32"
         inkscape:connector-curvature="0" /></clipPath><clipPath
       clipPathUnits="userSpaceOnUse"
       id="clipPath38"><path
         d="M 0,318 412,318 412,0 0,0 0,318 z"
         id="path40"
         inkscape:connector-curvature="0" /></clipPath></defs><sodipodi:namedview
     pagecolor="#ffffff"
     bordercolor="#666666"
     borderopacity="1"
     objecttolerance="10"
     gridtolerance="10"
     guidetolerance="10"
     inkscape:pageopacity="0"
     inkscape:pageshadow="2"
     inkscape:window-width="1366"
     inkscape:window-height="705"
     id="namedview4"
     showgrid="true"
     inkscape:zoom="0.59371069"
     inkscape:cx="257.5"
     inkscape:cy="198.75"
     inkscape:window-x="-8"
     inkscape:window-y="-8"
     inkscape:window-maximized="1"
     inkscape:current-layer="g10"><inkscape:grid
       type="xygrid"
       id="grid5646"
       empspacing="5"
       visible="true"
       enabled="true"
       snapvisiblegridlinesonly="true" /></sodipodi:namedview><g
     id="g10"
     inkscape:groupmode="layer"
     inkscape:label="ejemplo fabian (1)"
     transform="matrix(1.25,0,0,-1.25,0,558)"><g
       transform="matrix(1.9957215,0,0,1.9957215,-154.98549,44.812262)"
       clip-path="url(#clipPath30)"
       id="g28"><g
         id="g36" /><g
         id="g5626"
         style="fill:#39ade3;fill-opacity:1"
         transform="translate(-5.52502,-85.2268)"><g
           id="g48"
           transform="translate(189.5352,109.5049)"
           style="fill:#39ade3;fill-opacity:1"><path
             d="M 0,0 C 17.521,0 33.481,6.683 45.473,17.632 L -14.368,1.546 C -9.736,0.536 -4.925,0 0,0"
             style="fill:#39ade3;fill-opacity:1;fill-rule:evenodd;stroke:none"
             id="path50"
             inkscape:connector-curvature="0" /></g><g
           id="g52"
           transform="translate(235.5537,200.9316)"
           style="fill:#39ade3;fill-opacity:1"><path
             d="m 0,0 c -3.312,-1.627 -6.885,-1.375 -8.938,0.368 l -0.145,-33.803 0,-0.008 c -0.054,-0.954 -0.246,-1.807 -0.519,-2.585 l 0,-0.196 -0.083,-0.025 c -1.711,-4.533 -6.486,-6.161 -7.503,-6.457 l -15.751,-4.337 c -2.41,-0.458 -6.863,-0.381 -7.397,6.183 l 0,4.658 0.141,22.933 0.036,0.004 c -0.024,2.643 1.953,5.509 5.178,7.098 4.099,2.027 8.655,1.191 10.159,-1.85 1.489,-3.052 -0.626,-7.164 -4.727,-9.182 -3.324,-1.628 -6.892,-1.389 -8.948,0.363 l -0.077,-14.888 c 0.227,-3.501 1.656,-9.379 8.956,-7.301 l 9.814,2.872 c 0.815,0.244 9.001,2.983 9.065,15.489 l 0.098,24.609 0.033,0 c -0.015,2.633 1.95,5.509 5.179,7.097 4.108,2.03 8.658,1.195 10.158,-1.854 C 6.224,6.138 4.106,2.028 0,0 m -44.793,-30.855 -0.03,-0.003 c 0.021,-2.361 -1.749,-4.927 -4.629,-6.35 -3.67,-1.811 -7.74,-1.063 -9.091,1.656 -1.33,2.732 0.568,6.413 4.232,8.22 2.975,1.455 6.163,1.236 7.999,-0.332 l -0.014,12.533 c -0.199,3.127 -1.476,8.553 -8.009,6.697 l -1.644,-0.469 c -0.731,-0.215 -8.054,-2.666 -8.112,-13.846 l -0.032,-12.285 c 0,0 -0.062,-0.709 -0.468,-1.055 -0.408,-0.35 -1.57,-0.648 -1.57,-0.648 l 0,16.608 c -0.201,3.126 -0.77,8.222 -7.3,6.361 l -1.647,-0.47 c -0.651,-0.195 -6.574,-2.176 -7.861,-10.589 -0.034,-4.569 -0.141,-25.487 -0.141,-25.487 l -0.033,0 c 0.013,-2.354 -1.743,-4.924 -4.634,-6.346 -3.672,-1.816 -7.744,-1.069 -9.082,1.659 -1.337,2.73 0.556,6.403 4.228,8.218 2.964,1.456 6.157,1.231 7.996,-0.33 l -0.057,30.448 0,0.007 c 0.05,0.85 0.216,1.617 0.461,2.311 l 0,0.175 0.076,0.024 c 1.528,4.052 5.799,5.507 6.707,5.772 l 6.961,1.611 c 1.555,0.29 4.074,0.327 5.524,-1.899 1.573,3.931 5.743,5.359 6.642,5.621 l 6.961,1.611 c 2.149,0.405 6.135,0.34 6.614,-5.535 l -0.047,-23.888 z M 52.8,21.382 12.429,10.503 C 0.772,30.684 -21.034,44.26 -46.016,44.26 c -37.259,0 -67.46,-30.201 -67.46,-67.455 l 0,-0.215 -31.715,-8.551 0,-2.293 31.766,8.561 c 0.067,-1.897 0.219,-3.773 0.44,-5.626 l -32.206,-8.678 0,-2.296 32.509,8.763 c 0.29,-1.905 0.659,-3.783 1.108,-5.632 l -33.802,-9.109 0,-2.292 34.364,9.255 c 0.465,-1.68 0.995,-3.339 1.586,-4.966 l -35.95,-9.688 0,-2.288 36.755,9.897 c 0.705,-1.754 1.48,-3.469 2.325,-5.143 l -39.08,-10.53 0,-2.296 40.132,10.812 c 3.633,-6.647 8.348,-12.611 13.914,-17.662 l 109.477,29.114 c 2.135,6.577 3.294,13.58 3.294,20.863 0,0.602 -0.01,1.205 -0.026,1.809 l 31.199,8.404 0,2.299 -31.299,-8.432 c -0.116,1.892 -0.298,3.768 -0.571,5.617 l 31.87,8.578 0,2.299 -32.218,-8.676 c -0.307,1.72 -0.678,3.418 -1.114,5.09 l 33.332,8.981 0,2.297 -33.927,-9.139 c -0.547,1.842 -1.16,3.652 -1.856,5.424 l 35.969,9.695 0,2.292 -36.819,-9.919 c -0.746,1.733 -1.56,3.429 -2.445,5.084 l 39.264,10.577 0,2.297 z"
             style="fill:#39ade3;fill-opacity:1;fill-rule:evenodd;stroke:none"
             id="path54"
             inkscape:connector-curvature="0" /></g><g
           id="g56"
           transform="translate(290.8281,147.4678)"
           style="fill:#39ade3;fill-opacity:1"><path
             d="M 0,0 4.613,9.342 2.92,0.782 0,0 z m -3.987,7.046 1.318,-7.765 -3.017,-0.802 1.699,8.567 z m -62.125,-24.786 4.657,9.427 -1.714,-8.639 -2.943,-0.788 z m -5.657,-1.517 1.714,8.649 1.33,-7.833 -3.044,-0.816 z m -64.634,-17.346 0.876,4.391 3.164,0.84 -0.871,-4.38 -3.169,-0.851 z m 2.674,13.531 3.169,0.843 -1.405,-7.113 -3.169,-0.847 1.405,7.117 z m 30.351,8.109 3.167,0.847 -2.416,-12.206 -3.165,-0.85 2.414,12.209 z m 22.108,5.91 3.166,0.844 -2.419,-12.207 -3.165,-0.847 2.418,12.21 z m 66.068,17.654 3.165,0.845 -2.419,-12.209 -3.167,-0.846 2.421,12.21 z M 6.217,16.246 1.427,6.549 0.041,14.595 -4.535,13.373 -7.579,-2.031 -10.164,-2.726 c 0.436,0.534 0.736,1.144 0.88,1.836 l 2.197,11.168 c 0.161,0.773 0.066,1.336 -0.273,1.679 -0.347,0.35 -0.875,0.427 -1.596,0.233 l -8.535,-2.28 c -0.703,-0.187 -1.319,-0.569 -1.848,-1.151 -0.525,-0.584 -0.87,-1.263 -1.034,-2.03 l -2.199,-11.168 c -0.143,-0.702 -0.073,-1.214 0.197,-1.565 l -2.102,-0.562 0.233,1.183 -5.825,-1.552 2.548,12.244 5.701,1.525 0.395,2.027 -8.379,-2.246 C -30.51,6.432 -31.125,6.046 -31.654,5.465 -32.18,4.887 -32.526,4.21 -32.688,3.438 l -2.199,-11.169 c -0.146,-0.71 -0.075,-1.227 0.203,-1.576 l -1.099,-0.295 0.369,1.886 -3.804,-1.019 -0.372,-1.887 -3.805,-1.02 c 0.462,0.545 0.773,1.169 0.916,1.884 l 2.709,13.716 -5.059,-1.353 -2.81,-14.241 -3.172,-0.842 2.813,14.237 -5.054,-1.351 -2.708,-13.721 c -0.149,-0.713 -0.072,-1.242 0.216,-1.59 l -2.589,-0.698 3.059,15.466 -4.775,-1.272 -4.794,-9.703 -1.385,8.048 -4.575,-1.221 -3.058,-15.483 -2.65,-0.713 c 0.48,0.557 0.807,1.2 0.955,1.932 l 2.198,11.172 c 0.164,0.771 0.072,1.33 -0.274,1.677 -0.344,0.351 -0.875,0.426 -1.595,0.234 l -8.533,-2.279 c -0.702,-0.191 -1.32,-0.575 -1.847,-1.154 -0.528,-0.581 -0.871,-1.258 -1.033,-2.034 l -2.197,-11.166 c -0.156,-0.739 -0.072,-1.278 0.235,-1.626 l -2.485,-0.667 3.063,15.507 -5.063,-1.352 -3.061,-15.515 -2.491,-0.665 c 0.498,0.562 0.825,1.216 0.977,1.959 l 2.202,11.174 c 0.162,0.769 0.072,1.33 -0.275,1.677 -0.345,0.346 -0.875,0.425 -1.594,0.233 l -10.908,-2.913 -3.069,-15.53 -2.526,-0.68 c 0.507,0.572 0.839,1.234 0.994,1.986 l 2.709,13.717 -5.056,-1.354 -2.822,-14.236 -3.162,-0.842 2.814,14.234 -5.059,-1.352 -2.706,-13.717 c -0.156,-0.763 -0.072,-1.315 0.264,-1.663 l -2.52,-0.674 2.565,13.004 c 0.162,0.773 0.069,1.33 -0.272,1.677 -0.345,0.346 -0.882,0.424 -1.597,0.232 l -8.534,-2.278 c -0.701,-0.191 -1.319,-0.574 -1.849,-1.155 -0.531,-0.578 -0.869,-1.256 -1.031,-2.027 l -2.705,-13.717 5.057,1.349 0,0.004 3.163,0.844 5.062,1.349 0,0.005 4.249,1.135 c 0.005,0.004 0.011,0.004 0.017,0.004 l 8.535,2.28 c 0.005,0 0.009,0.005 0.012,0.005 l 4.254,1.135 0,-0.003 10.912,2.918 c 0,0.001 0.006,0.003 0.006,0.003 l 4.24,1.132 0,-0.002 4.96,1.326 4.345,1.165 0.016,0 8.532,2.282 c 0.004,0.004 0.007,0.004 0.012,0.004 l 4.787,1.28 1.518,0.404 3.317,0.89 2.067,0.55 0,0.002 3.214,0.859 5.035,1.343 4.39,1.173 0.011,0 8.531,2.284 c 0.01,0 0.016,0.004 0.021,0.004 l 5.588,1.496 0.543,0.144 6.176,1.652 c 0.003,0 0.006,0 0.008,10e-4 l 6.187,1.656 6.123,1.633 c 0.002,0.003 0.005,0.003 0.011,0.003 l 8.534,2.283 c 0,0 0.002,0 0.002,10e-4 l 4.42,1.176 1.889,0.507 8.599,2.297 0,-0.005 5.033,1.35 3.217,16.267 -4.777,-1.279 z"
             style="fill:#39ade3;fill-opacity:1;fill-rule:nonzero;stroke:none"
             id="path58"
             inkscape:connector-curvature="0" /></g></g></g></g></svg>