<?xml version="1.0" encoding="UTF-8" standalone="no"?>
<!-- Created with Inkscape (http://www.inkscape.org/) -->

<svg
   xmlns:dc="http://purl.org/dc/elements/1.1/"
   xmlns:cc="http://creativecommons.org/ns#"
   xmlns:rdf="http://www.w3.org/1999/02/22-rdf-syntax-ns#"
   xmlns:svg="http://www.w3.org/2000/svg"
   xmlns="http://www.w3.org/2000/svg"
   xmlns:sodipodi="http://sodipodi.sourceforge.net/DTD/sodipodi-0.dtd"
   xmlns:inkscape="http://www.inkscape.org/namespaces/inkscape"
   width="187.53653"
   height="55.754951"
   id="svg3110"
   version="1.1"
   inkscape:version="0.48.5 r10040"
   sodipodi:docname="firma.svg">
  <defs
     id="defs3112" />
  <sodipodi:namedview
     id="base"
     pagecolor="#ffffff"
     bordercolor="#666666"
     borderopacity="1.0"
     inkscape:pageopacity="0.0"
     inkscape:pageshadow="2"
     inkscape:zoom="1.979899"
     inkscape:cx="87.035541"
     inkscape:cy="69.636283"
     inkscape:document-units="px"
     inkscape:current-layer="g3077"
     showgrid="false"
     fit-margin-top="0"
     fit-margin-left="0"
     fit-margin-right="0"
     fit-margin-bottom="0"
     inkscape:window-width="1366"
     inkscape:window-height="705"
     inkscape:window-x="-8"
     inkscape:window-y="-8"
     inkscape:window-maximized="1" />
  <metadata
     id="metadata3115">
    <rdf:RDF>
      <cc:Work
         rdf:about="">
        <dc:format>image/svg+xml</dc:format>
        <dc:type
           rdf:resource="http://purl.org/dc/dcmitype/StillImage" />
      </cc:Work>
    </rdf:RDF>
  </metadata>
  <g
     inkscape:label="Capa 1"
     inkscape:groupmode="layer"
     id="layer1"
     transform="translate(-426.23964,-298.79346)">
    <g
       id="g3077"
       transform="matrix(1.25,0,0,-1.25,671.90804,458.774)">
      <g
         id="g4629">
        <g
           id="g48"
           transform="translate(-167.35372,116.63532)">
          <path
             inkscape:connector-curvature="0"
             id="path50"
             d="m -16.15625,-33.25 c -3.052498,0.07971 -5.678174,1.116147 -7.71875,2.8125 -2.720768,2.261803 -4.405309,5.654792 -5.03125,9.4375 -1.251883,7.565416 1.736021,16.81809 9.75,22.5 3.953059,2.8034145 7.222208,3.9495006 9.96875,3.9375 2.7465421,-0.012001 4.8696499,-1.2204554 6.375,-2.8125 C -2.0805301,1.8508753 -1.4844184,0.99352047 -1,0.125 A 1.0019512,1.0019512 0 1 0 1,0 l 0,-6.15625 -2,0 c 0,0.017998 -0.046735,0.4715055 -0.15625,1 -0.1095152,0.5284945 -0.2758627,1.1992243 -0.53125,1.9375 C -2.1982746,-1.7421986 -3.0292251,-0.04108045 -4.25,1.25 -5.4707749,2.5410804 -7.0375109,3.4279694 -9.21875,3.4375 -11.399989,3.4470306 -14.264559,2.5240855 -18,-0.125 c -7.364021,-5.22109 -10.062367,-13.764666 -8.9375,-20.5625 0.562434,-3.398917 2.0668,-6.325897 4.34375,-8.21875 2.27695,-1.892853 5.329194,-2.816227 9.28125,-2.125 2.880932,0.480401 6.3217577,1.303982 9,2.75 2.6782423,1.446018 4.53573113,3.373364 4.71875,6.25 a 1.0019512,1.0019512 0 1 0 2,-0.125 c -0.2349811,-3.693364 -2.73149229,-6.245268 -5.75,-7.875 -3.0185077,-1.629732 -6.6349324,-2.470151 -9.625,-2.96875 -1.108861,-0.193943 -2.170001,-0.27657 -3.1875,-0.25 z"
             style="font-size:medium;font-style:normal;font-variant:normal;font-weight:normal;font-stretch:normal;text-indent:0;text-align:start;text-decoration:none;line-height:normal;letter-spacing:normal;word-spacing:normal;text-transform:none;direction:ltr;block-progression:tb;writing-mode:lr-tb;text-anchor:start;baseline-shift:baseline;color:#000000;fill:#000000;fill-opacity:1;stroke:none;stroke-width:2;marker:none;visibility:visible;display:inline;overflow:visible;enable-background:accumulate;font-family:Sans;-inkscape-font-specification:Sans" />
        </g>
        <g
           id="g52"
           transform="translate(-149.32052,104.47322)">
          <path
             inkscape:connector-curvature="0"
             id="path54"
             d="m -10.1875,-17.375 c -0.859433,0.116982 -1.618964,0.495601 -2.1875,1.09375 -1.137072,1.196298 -1.472322,3.006836 -1.28125,5.0625 0.191072,2.0556638 0.960513,4.4009809 2.3125,6.8125 2.6344567,4.70085701 4.6816315,6.9373523 6.875,7.53125 1.0966842,0.2969488 2.1960581,0.072476 3.0625,-0.4375 0.47796591,-0.2813244 0.82613633,-0.7261061 1.21875,-1.125 L 1,6.65625 1.6875,1.09375 c 0,0 -0.00256,-0.32154404 0,-0.34375 0.03188,-0.27678333 0.2423576,-1.8994184 0.125,-4.28125 -0.1164868,-2.3641589 -0.6214823,-5.1460241 -2,-7.34375 0.0142219,-0.418564 -0.0126743,-1.155799 0,-1.1875 0.62090995,-1.550057 2.3946688,-1.778875 3,-1.375 a 1.0001,1.0001 0 1 0 1.09375,-1.65625 c -1.8692202,-1.247137 -4.75594598,-0.381631 -5.875,2.125 -1.9792468,-1.949397 -3.821463,-3.375911 -5.40625,-4 -0.9904638,-0.390045 -1.9530666,-0.523232 -2.8125,-0.40625 z m 0.3125,1.9375 c 0.4467698,-0.0517 1.0242763,0.04565 1.78125,0.34375 1.456863,0.573712 3.4776889,2.026155 5.84375,4.59375 0.024521,0.366601 0.021811,0.7042386 0.0625,1.125 0.1357295,1.4035732 0.4050499,3.0317515 0.6875,4.59375 0.3794258,2.0982908 0.57346321,2.9607705 0.8125,4.03125 a 1.0001,1.0001 0 0 0 -0.09375,0.125 C -1.3344917,0.09100098 -1.8921607,0.6661638 -2.40625,0.96875 -2.9203393,1.2713362 -3.3565592,1.3448012 -3.9375,1.1875 -5.0993815,0.8728977 -7.0884567,-0.84885701 -9.625,-5.375 c -1.234513,-2.2019809 -1.872697,-4.3254451 -2.03125,-6.03125 -0.158553,-1.705805 0.209572,-2.931423 0.75,-3.5 0.270214,-0.284288 0.58448,-0.479548 1.03125,-0.53125 z"
             style="font-size:medium;font-style:normal;font-variant:normal;font-weight:normal;font-stretch:normal;text-indent:0;text-align:start;text-decoration:none;line-height:normal;letter-spacing:normal;word-spacing:normal;text-transform:none;direction:ltr;block-progression:tb;writing-mode:lr-tb;text-anchor:start;baseline-shift:baseline;color:#000000;fill:#000000;fill-opacity:1;stroke:none;stroke-width:2;marker:none;visibility:visible;display:inline;overflow:visible;enable-background:accumulate;font-family:Sans;-inkscape-font-specification:Sans" />
        </g>
        <g
           id="g56"
           transform="translate(-134.36352,104.33352)">
          <path
             inkscape:connector-curvature="0"
             id="path58"
             d="m -3.6875,-18 c -0.6975698,0.03553 -1.4228195,0.185315 -2.125,0.40625 -2.8087218,0.883741 -5.543936,3.271434 -6.09375,6.96875 -0.522101,3.5043191 0.432628,5.7519409 1.65625,7.15625 0.6118109,0.7021546 1.2763078,1.1995168 1.78125,1.59375 0.5049422,0.3942332 0.8204799,0.7126873 0.875,0.8125 a 1.0001221,1.0001221 0 1 0 1.75,-0.96875 C -6.2087299,-2.6994373 -6.7371297,-3.0370769 -7.25,-3.4375 c -0.5128703,-0.4004231 -1.0148109,-0.8227796 -1.46875,-1.34375 -0.9078782,-1.0419409 -1.644399,-2.4958191 -1.1875,-5.5625 0.427186,-2.872684 2.4984718,-4.654991 4.6875,-5.34375 1.0945141,-0.34438 2.1928,-0.40613 3.03125,-0.1875 0.83845,0.21863 1.40189837,0.646323 1.6875,1.3125 0.28504799,0.664885 0.28614013,1.700699 -0.03125,2.96875 -0.31739013,1.268051 -0.9209584,2.7161353 -1.625,4.21875 C -3.5643332,-4.3697706 -5.3693627,-1.2835279 -6,1.15625 -6.3185495,2.390843 -6.2876283,3.4593787 -5.90625,4.3125 -5.5248717,5.1656213 -4.7904403,5.7063714 -4.0625,6 c 0.7279403,0.2936286 1.474118,0.3749752 2.15625,0.3125 0.682132,-0.062475 1.28491005,-0.2296618 1.8125,-0.625 C 0.51927371,5.2278692 0.70055993,4.6044476 0.84375,4 0.98694007,3.3955524 1.0437947,2.7560934 1.0625,2.15625 1.0999106,0.95656321 1,-0.09375 1,-0.09375 a 1.0043849,1.0043849 0 1 0 -2,0.1875 c 0,0 0.0948394,0.9629368 0.0625,2 -0.0161697,0.5185316 -0.0634713,1.0458538 -0.15625,1.4375 -0.092779,0.3916462 -0.2722737,0.6026308 -0.21875,0.5625 -0.03091,0.023162 -0.3715383,0.1812252 -0.78125,0.21875 -0.4097117,0.037525 -0.8945653,-0.012879 -1.25,-0.15625 -0.3554347,-0.1433714 -0.5670345,-0.3481213 -0.71875,-0.6875 -0.1517155,-0.3393787 -0.2404505,-0.880593 0,-1.8125 0.4893627,-1.89322213 2.2613332,-5.0457294 3.71875,-8.15625 0.7287084,-1.5552603 1.3774526,-3.1365823 1.75,-4.625 0.3725474,-1.488418 0.491452,-2.926635 -0.0625,-4.21875 -0.55339837,-1.290823 -1.71073123,-2.132567 -3,-2.46875 C -2.3008844,-17.980591 -2.9899302,-18.035531 -3.6875,-18 z"
             style="font-size:medium;font-style:normal;font-variant:normal;font-weight:normal;font-stretch:normal;text-indent:0;text-align:start;text-decoration:none;line-height:normal;letter-spacing:normal;word-spacing:normal;text-transform:none;direction:ltr;block-progression:tb;writing-mode:lr-tb;text-anchor:start;baseline-shift:baseline;color:#000000;fill:#000000;fill-opacity:1;stroke:none;stroke-width:2;marker:none;visibility:visible;display:inline;overflow:visible;enable-background:accumulate;font-family:Sans;-inkscape-font-specification:Sans" />
        </g>
        <g
           id="g60"
           transform="translate(-133.10372,113.14122)">
          <path
             inkscape:connector-curvature="0"
             id="path62"
             d="m 10.0625,-27.4375 a 1.0001,1.0001 0 0 0 -0.71875,0.46875 c -1.1367963,1.788389 -2.3481738,5.349589 -3.0625,10.34375 -0.2010216,1.404567 -0.1974661,3.810349 -0.125,6.84375 0.072466,3.0334007 0.2263015,6.6198711 0.375,10.0625 C 6.6799485,3.7238789 6.8206857,7.0246757 6.875,9.5 c 0.014144,0.644616 -5.699e-4,1.045263 0,1.5625 C 6.5285064,10.391673 6.2153066,9.8076817 5.78125,8.90625 4.4213572,6.082078 2.7133515,2.4172052 0.84375,-0.53125 a 1.0001,1.0001 0 1 0 -1.6875,1.0625 C 0.92064851,3.3137948 2.6338928,6.912922 4,9.75 c 0.6830536,1.418539 1.2702699,2.654491 1.78125,3.53125 0.25549,0.438379 0.4651772,0.792759 0.75,1.09375 0.1424114,0.150495 0.2893583,0.28724 0.59375,0.40625 0.3043917,0.11901 0.8760777,0.07189 1.1875,-0.1875 C 8.6357443,14.324444 8.6726481,14.148675 8.71875,14 8.7648519,13.851325 8.7919723,13.735803 8.8125,13.59375 8.8535554,13.309644 8.860229,12.958404 8.875,12.5625 8.904542,11.770692 8.9025772,10.725557 8.875,9.46875 8.8198456,6.9551368 8.6799265,3.6296211 8.53125,0.1875 c -0.1486765,-3.4421211 -0.3032473,-6.9964632 -0.375,-10 -0.071753,-3.003537 -0.055228,-5.490317 0.09375,-6.53125 0.6856738,-4.793839 1.995296,-8.245639 2.8125,-9.53125 a 1.0001,1.0001 0 0 0 -1,-1.5625 z"
             style="font-size:medium;font-style:normal;font-variant:normal;font-weight:normal;font-stretch:normal;text-indent:0;text-align:start;text-decoration:none;line-height:normal;letter-spacing:normal;word-spacing:normal;text-transform:none;direction:ltr;block-progression:tb;writing-mode:lr-tb;text-anchor:start;baseline-shift:baseline;color:#000000;fill:#000000;fill-opacity:1;stroke:none;stroke-width:2;marker:none;visibility:visible;display:inline;overflow:visible;enable-background:accumulate;font-family:Sans;-inkscape-font-specification:Sans" />
        </g>
        <g
           id="g64"
           transform="translate(-144.70722,106.43022)">
          <path
             inkscape:connector-curvature="0"
             id="path66"
             d="m 93.21875,-19.3125 a 1.0001,1.0001 0 0 0 -0.65625,1.59375 c 2.023182,2.765289 3.271422,5.535138 3.5625,8.28125 0.291078,2.7461123 -0.336587,5.5030996 -2.1875,8.34375 -1.756753,2.6984151 -5.452743,5.0670703 -12,6.78125 -6.197894,1.6227107 -15.125672,2.5928616 -26.90625,2.875 1.58603,-0.6144003 3.245829,-1.129066 4.75,-1.78125 7.025248,-3.0460334 12.853543,-6.27450708 15.3125,-8.0625 2.59172,-1.8843763 5.148073,-5.6308755 5.5625,-9.28125 0.207214,-1.825187 -0.203746,-3.721559 -1.625,-5.0625 -1.421254,-1.340941 -3.677952,-2.036474 -6.90625,-2 -5.703983,0.06491 -9.032333,2.761097 -10.78125,5.90625 -0.160776,-0.189714 -0.247721,-0.420551 -0.4375,-0.59375 -1.17093,-1.068629 -2.855674,-1.736523 -5.09375,-1.8125 -2.28793,-0.07739 -3.983413,0.710805 -5,1.96875 -0.231332,0.286255 -0.334228,0.622315 -0.5,0.9375 -1.066474,-1.579418 -2.639592,-2.949828 -5.09375,-3.46875 -1.975629,-0.417681 -3.638826,-0.252922 -4.96875,0.375 -1.329924,0.627922 -2.26177,1.703556 -2.8125,2.9375 -0.02992,0.06705 -0.0033,0.150876 -0.03125,0.21875 -1.948421,-1.766506 -4.23626,-3.307889 -6.6875,-4.125 -1.724957,-0.575008 -3.446767,-0.8434 -5,-0.65625 -1.553233,0.18715 -2.976074,0.894594 -3.78125,2.28125 -1.495723,2.575901 -0.915817,5.7281319 0.625,8.625 1.540817,2.8968681 4.069993,5.67226537 6.90625,7.78125 0.431038,0.3205318 0.873946,0.4468408 1.3125,0.71875 -1.662412,0.041442 -3.117142,0.058766 -4.90625,0.125 C 18.787416,3.8561372 11.268558,4.249198 9.53125,4.1875 7.7300615,4.122613 4.9992779,3.5578357 3.0625,2.71875 2.094111,2.2992071 1.3315021,1.7751085 1,1.375 0.66849792,0.97489154 0.6351958,0.9197288 0.875,0.5 a 1.0077822,1.0077822 0 1 0 -1.75,-1 C -1.4741958,0.5487712 -1.2132479,1.8331085 -0.53125,2.65625 0.15074792,3.4793915 1.121389,4.0735429 2.25,4.5625 c 2.2572221,0.9779143 5.1059385,1.548887 7.21875,1.625 2.176692,0.077302 9.402084,-0.3321372 16.46875,-0.59375 3.16735,-0.1172575 6.137689,-0.1711235 8.65625,-0.1875 1.127499,0.3909177 2.233357,0.7313391 3.15625,0.875 1.143017,0.1779263 2.051277,0.2236632 2.78125,0.0625 C 40.896236,6.2631684 41.393451,6.2005725 41.6875,5.5 41.834524,5.1497138 41.737334,4.7210233 41.59375,4.46875 41.450166,4.2164767 41.291601,4.0586838 41.125,3.9375 40.738298,3.6568336 40.486601,3.6532153 40.15625,3.59375 39.825899,3.5342847 39.44859,3.5009561 39,3.46875 38.102821,3.4043378 36.944549,3.3760727 35.59375,3.375 c -0.225938,-1.794e-4 -0.576204,0.03003 -0.8125,0.03125 -1.34867,-0.515881 -2.770766,-1.2429542 -4.125,-2.25 -2.615743,-1.94501537 -4.984567,-4.5696181 -6.34375,-7.125 -1.359183,-2.5553819 -1.676527,-4.899151 -0.65625,-6.65625 0.452824,-0.779844 1.183733,-1.207744 2.3125,-1.34375 1.128767,-0.136006 2.599957,0.08538 4.125,0.59375 2.581856,0.860652 5.100869,2.639328 6.875,4.5625 -0.194327,1.8399285 -0.02874,3.7093165 0.71875,5.3125 0.539322,1.1543527 1.036777,1.9034669 1.875,2.28125 0.419111,0.1888916 1.028472,0.2108869 1.46875,-0.0625 0.440278,-0.2733869 0.636944,-0.6912347 0.75,-1.09375 0.226112,-0.8050306 0.145576,-1.7344073 -0.1875,-2.84375 -0.333076,-1.1093427 -0.942786,-2.3788863 -1.90625,-3.75 -0.149512,-0.2126728 -0.427866,-0.3558708 -0.59375,-0.5625 0.0792,-0.3328313 0.02549,-0.738282 0.15625,-1.03125 0.392895,-0.880306 0.980643,-1.529985 1.84375,-1.9375 0.863107,-0.407515 2.059379,-0.569569 3.71875,-0.21875 2.830195,0.598433 3.991605,2.389659 4.65625,4.34375 -0.01617,0.178367 -0.08584,0.3549028 -0.09375,0.53125 -0.06675,1.4884992 0.149784,2.9287258 0.375,3.96875 0.112608,0.5200121 0.215284,0.9204321 0.3125,1.21875 0.04861,0.149159 0.09245,0.2710411 0.15625,0.40625 0.01595,0.033802 0.02896,0.069946 0.0625,0.125 0.03354,0.055054 0.06006,0.1136168 0.28125,0.28125 0.0553,0.041908 0.218019,0.1247139 0.21875,0.125 7.31e-4,2.861e-4 0.468118,0.093808 0.46875,0.09375 6.32e-4,-5.83e-5 0.530718,-0.2183445 0.53125,-0.21875 5.32e-4,-4.055e-4 0.249571,-0.3117444 0.25,-0.3125 4.29e-4,-7.556e-4 0.07715,-0.1620594 0.09375,-0.21875 0.0166,-0.056691 0.02576,-0.088191 0.03125,-0.125 0.01097,-0.073619 0,-0.1180147 0,-0.15625 0,0.096941 0.01406,-0.2156887 0.03125,-0.53125 0.01719,-0.3155613 0.03583,-0.7211211 0.03125,-1.21875 -0.0092,-0.9952578 -0.09618,-2.300075 -0.4375,-3.65625 -0.05689,-0.2260292 -0.176287,-0.4581429 -0.25,-0.6875 0.144123,-0.8336921 0.368376,-1.606682 0.8125,-2.15625 0.6216,-0.76918 1.57018,-1.312108 3.40625,-1.25 1.885924,0.06402 3.035117,0.603035 3.8125,1.3125 0.360274,0.328798 0.652285,0.700756 0.875,1.125 -0.539596,1.6046635 -0.81672,3.1968485 -0.8125,4.59375 0.0048,1.60542 0.209011,2.8933216 0.75,3.8125 l 1,1.75 0.78125,-1.875 c 0.568765,-1.3823672 1.290968,-4.1959898 0.78125,-7 -0.0832,-0.4576902 -0.272779,-0.8962891 -0.4375,-1.34375 1.261783,-3.066915 3.893824,-5.778177 9.65625,-5.84375 2.923202,-0.03303 4.601379,0.620909 5.5,1.46875 0.898621,0.847841 1.159786,1.967562 1,3.375 -0.319573,2.8148755 -2.69747,6.4053763 -4.71875,7.875 C 71.782457,-1.3392429 65.919002,1.9375334 59,4.9375 55.640429,6.3941554 52.012763,7.7647351 48.40625,8.90625 39.008224,9.2806093 32.590146,10.041301 30.25,10.84375 c -0.347471,0.11915 -0.612111,0.211589 -0.875,0.375 -0.262889,0.163411 -0.700047,0.398474 -0.71875,1.09375 -0.0094,0.347638 0.171216,0.671818 0.34375,0.84375 0.172534,0.171932 0.352751,0.249835 0.5,0.3125 0.294498,0.12533 0.564049,0.20399 0.90625,0.25 1.368803,0.18404 3.689563,0.107677 7.15625,-0.28125 3.544081,-0.398156 7.390095,-1.329908 11.21875,-2.53125 1.662721,-0.06753 2.601988,-0.219157 4.5,-0.25 C 66.187647,10.445994 75.634757,9.3748203 82.4375,7.59375 89.240243,5.8126797 93.467753,3.3135849 95.625,0 c 2.065087,-3.1693496 2.838672,-6.4611123 2.5,-9.65625 -0.338672,-3.195138 -1.767682,-6.284289 -3.9375,-9.25 a 1.0001,1.0001 0 0 0 -0.96875,-0.40625 z m -54,13.84375 c 0.10631,0.261228 0.368139,0.6127348 0.4375,0.84375 0.09486,0.3159291 0.03003,0.3769134 0.0625,0.625 -0.109463,-0.1714006 -0.105078,-0.1004482 -0.21875,-0.34375 -0.154241,-0.3308089 -0.173327,-0.7528377 -0.28125,-1.125 z"
             style="font-size:medium;font-style:normal;font-variant:normal;font-weight:normal;font-stretch:normal;text-indent:0;text-align:start;text-decoration:none;line-height:normal;letter-spacing:normal;word-spacing:normal;text-transform:none;direction:ltr;block-progression:tb;writing-mode:lr-tb;text-anchor:start;baseline-shift:baseline;color:#000000;fill:#000000;fill-opacity:1;stroke:none;stroke-width:2;marker:none;visibility:visible;display:inline;overflow:visible;enable-background:accumulate;font-family:Sans;-inkscape-font-specification:Sans" />
        </g>
      </g>
    </g>
  </g>
</svg>
